<mxfile host="Electron" agent="Mozilla/5.0 (X11; Linux x86_64) AppleWebKit/537.36 (KHTML, like Gecko) draw.io/28.1.2 Chrome/138.0.7204.243 Electron/37.4.0 Safari/537.36" version="28.1.2">
  <diagram id="FJTfSkVivhKEIB-8hE8b" name="Page-1">
    <mxGraphModel dx="1677" dy="1003" grid="1" gridSize="10" guides="1" tooltips="1" connect="1" arrows="1" fold="1" page="1" pageScale="1" pageWidth="850" pageHeight="1100" math="1" shadow="0">
      <root>
        <mxCell id="0" />
        <mxCell id="1" parent="0" />
        <mxCell id="Mmx8a3ROT5sJp90eQMAr-17" value="" style="endArrow=none;html=1;rounded=0;" edge="1" parent="1">
          <mxGeometry width="50" height="50" relative="1" as="geometry">
            <mxPoint x="220" y="240" as="sourcePoint" />
            <mxPoint x="860" y="240" as="targetPoint" />
          </mxGeometry>
        </mxCell>
        <mxCell id="Mmx8a3ROT5sJp90eQMAr-1" value="" style="shape=waypoint;sketch=0;fillStyle=solid;size=6;pointerEvents=1;points=[];fillColor=none;resizable=0;rotatable=0;perimeter=centerPerimeter;snapToPoint=1;strokeWidth=6;strokeColor=#FF0000;" vertex="1" parent="1">
          <mxGeometry x="230" y="230" width="20" height="20" as="geometry" />
        </mxCell>
        <mxCell id="Mmx8a3ROT5sJp90eQMAr-2" value="" style="shape=waypoint;sketch=0;fillStyle=solid;size=6;pointerEvents=1;points=[];fillColor=none;resizable=0;rotatable=0;perimeter=centerPerimeter;snapToPoint=1;strokeWidth=6;strokeColor=#0000FF;" vertex="1" parent="1">
          <mxGeometry x="270" y="230" width="20" height="20" as="geometry" />
        </mxCell>
        <mxCell id="Mmx8a3ROT5sJp90eQMAr-3" value="" style="shape=waypoint;sketch=0;fillStyle=solid;size=6;pointerEvents=1;points=[];fillColor=none;resizable=0;rotatable=0;perimeter=centerPerimeter;snapToPoint=1;strokeWidth=6;strokeColor=#FF00FF;" vertex="1" parent="1">
          <mxGeometry x="310" y="230" width="20" height="20" as="geometry" />
        </mxCell>
        <mxCell id="Mmx8a3ROT5sJp90eQMAr-4" value="" style="shape=waypoint;sketch=0;fillStyle=solid;size=6;pointerEvents=1;points=[];fillColor=none;resizable=0;rotatable=0;perimeter=centerPerimeter;snapToPoint=1;strokeWidth=6;strokeColor=#00CC00;" vertex="1" parent="1">
          <mxGeometry x="350" y="230" width="20" height="20" as="geometry" />
        </mxCell>
        <mxCell id="Mmx8a3ROT5sJp90eQMAr-5" value="" style="shape=waypoint;sketch=0;fillStyle=solid;size=6;pointerEvents=1;points=[];fillColor=none;resizable=0;rotatable=0;perimeter=centerPerimeter;snapToPoint=1;strokeWidth=6;strokeColor=#FF0000;" vertex="1" parent="1">
          <mxGeometry x="390" y="230" width="20" height="20" as="geometry" />
        </mxCell>
        <mxCell id="Mmx8a3ROT5sJp90eQMAr-6" value="" style="shape=waypoint;sketch=0;fillStyle=solid;size=6;pointerEvents=1;points=[];fillColor=none;resizable=0;rotatable=0;perimeter=centerPerimeter;snapToPoint=1;strokeWidth=6;strokeColor=#0000FF;" vertex="1" parent="1">
          <mxGeometry x="430" y="230" width="20" height="20" as="geometry" />
        </mxCell>
        <mxCell id="Mmx8a3ROT5sJp90eQMAr-7" value="" style="shape=waypoint;sketch=0;fillStyle=solid;size=6;pointerEvents=1;points=[];fillColor=none;resizable=0;rotatable=0;perimeter=centerPerimeter;snapToPoint=1;strokeWidth=6;strokeColor=#FF00FF;" vertex="1" parent="1">
          <mxGeometry x="470" y="230" width="20" height="20" as="geometry" />
        </mxCell>
        <mxCell id="Mmx8a3ROT5sJp90eQMAr-8" value="" style="shape=waypoint;sketch=0;fillStyle=solid;size=6;pointerEvents=1;points=[];fillColor=none;resizable=0;rotatable=0;perimeter=centerPerimeter;snapToPoint=1;strokeWidth=6;strokeColor=#00CC00;" vertex="1" parent="1">
          <mxGeometry x="510" y="230" width="20" height="20" as="geometry" />
        </mxCell>
        <mxCell id="Mmx8a3ROT5sJp90eQMAr-9" value="" style="shape=waypoint;sketch=0;fillStyle=solid;size=6;pointerEvents=1;points=[];fillColor=none;resizable=0;rotatable=0;perimeter=centerPerimeter;snapToPoint=1;strokeWidth=6;strokeColor=#FF0000;" vertex="1" parent="1">
          <mxGeometry x="550" y="230" width="20" height="20" as="geometry" />
        </mxCell>
        <mxCell id="Mmx8a3ROT5sJp90eQMAr-10" value="" style="shape=waypoint;sketch=0;fillStyle=solid;size=6;pointerEvents=1;points=[];fillColor=none;resizable=0;rotatable=0;perimeter=centerPerimeter;snapToPoint=1;strokeWidth=6;strokeColor=#0000FF;" vertex="1" parent="1">
          <mxGeometry x="590" y="230" width="20" height="20" as="geometry" />
        </mxCell>
        <mxCell id="Mmx8a3ROT5sJp90eQMAr-11" value="" style="shape=waypoint;sketch=0;fillStyle=solid;size=6;pointerEvents=1;points=[];fillColor=none;resizable=0;rotatable=0;perimeter=centerPerimeter;snapToPoint=1;strokeWidth=6;strokeColor=#FF00FF;" vertex="1" parent="1">
          <mxGeometry x="630" y="230" width="20" height="20" as="geometry" />
        </mxCell>
        <mxCell id="Mmx8a3ROT5sJp90eQMAr-12" value="" style="shape=waypoint;sketch=0;fillStyle=solid;size=6;pointerEvents=1;points=[];fillColor=none;resizable=0;rotatable=0;perimeter=centerPerimeter;snapToPoint=1;strokeWidth=6;strokeColor=#00CC00;" vertex="1" parent="1">
          <mxGeometry x="670" y="230" width="20" height="20" as="geometry" />
        </mxCell>
        <mxCell id="Mmx8a3ROT5sJp90eQMAr-13" value="" style="shape=waypoint;sketch=0;fillStyle=solid;size=6;pointerEvents=1;points=[];fillColor=none;resizable=0;rotatable=0;perimeter=centerPerimeter;snapToPoint=1;strokeWidth=6;strokeColor=#FF0000;" vertex="1" parent="1">
          <mxGeometry x="710" y="230" width="20" height="20" as="geometry" />
        </mxCell>
        <mxCell id="Mmx8a3ROT5sJp90eQMAr-14" value="" style="shape=waypoint;sketch=0;fillStyle=solid;size=6;pointerEvents=1;points=[];fillColor=none;resizable=0;rotatable=0;perimeter=centerPerimeter;snapToPoint=1;strokeWidth=6;strokeColor=#0000FF;" vertex="1" parent="1">
          <mxGeometry x="750" y="230" width="20" height="20" as="geometry" />
        </mxCell>
        <mxCell id="Mmx8a3ROT5sJp90eQMAr-15" value="" style="shape=waypoint;sketch=0;fillStyle=solid;size=6;pointerEvents=1;points=[];fillColor=none;resizable=0;rotatable=0;perimeter=centerPerimeter;snapToPoint=1;strokeWidth=6;strokeColor=#FF00FF;" vertex="1" parent="1">
          <mxGeometry x="790" y="230" width="20" height="20" as="geometry" />
        </mxCell>
        <mxCell id="Mmx8a3ROT5sJp90eQMAr-16" value="" style="shape=waypoint;sketch=0;fillStyle=solid;size=6;pointerEvents=1;points=[];fillColor=none;resizable=0;rotatable=0;perimeter=centerPerimeter;snapToPoint=1;strokeWidth=6;strokeColor=#00CC00;" vertex="1" parent="1">
          <mxGeometry x="830" y="230" width="20" height="20" as="geometry" />
        </mxCell>
        <mxCell id="Mmx8a3ROT5sJp90eQMAr-18" value="&lt;font style=&quot;font-size: 20px;&quot;&gt;$$x(t)$$&lt;/font&gt;" style="text;html=1;align=center;verticalAlign=middle;whiteSpace=wrap;rounded=0;" vertex="1" parent="1">
          <mxGeometry x="140" y="200" width="60" height="30" as="geometry" />
        </mxCell>
        <mxCell id="Mmx8a3ROT5sJp90eQMAr-19" value="" style="endArrow=none;html=1;rounded=0;" edge="1" parent="1">
          <mxGeometry width="50" height="50" relative="1" as="geometry">
            <mxPoint x="220" y="360" as="sourcePoint" />
            <mxPoint x="860" y="360" as="targetPoint" />
          </mxGeometry>
        </mxCell>
        <mxCell id="Mmx8a3ROT5sJp90eQMAr-20" value="" style="shape=waypoint;sketch=0;fillStyle=solid;size=6;pointerEvents=1;points=[];fillColor=none;resizable=0;rotatable=0;perimeter=centerPerimeter;snapToPoint=1;strokeWidth=6;strokeColor=#FF0000;" vertex="1" parent="1">
          <mxGeometry x="230" y="350" width="20" height="20" as="geometry" />
        </mxCell>
        <mxCell id="Mmx8a3ROT5sJp90eQMAr-21" value="" style="shape=waypoint;sketch=0;fillStyle=solid;size=6;pointerEvents=1;points=[];fillColor=none;resizable=0;rotatable=0;perimeter=centerPerimeter;snapToPoint=1;strokeWidth=6;strokeColor=#0000FF;" vertex="1" parent="1">
          <mxGeometry x="270" y="350" width="20" height="20" as="geometry" />
        </mxCell>
        <mxCell id="Mmx8a3ROT5sJp90eQMAr-22" value="" style="shape=waypoint;sketch=0;fillStyle=solid;size=6;pointerEvents=1;points=[];fillColor=none;resizable=0;rotatable=0;perimeter=centerPerimeter;snapToPoint=1;strokeWidth=6;strokeColor=#FF00FF;" vertex="1" parent="1">
          <mxGeometry x="310" y="350" width="20" height="20" as="geometry" />
        </mxCell>
        <mxCell id="Mmx8a3ROT5sJp90eQMAr-23" value="" style="shape=waypoint;sketch=0;fillStyle=solid;size=6;pointerEvents=1;points=[];fillColor=none;resizable=0;rotatable=0;perimeter=centerPerimeter;snapToPoint=1;strokeWidth=6;strokeColor=#00CC00;" vertex="1" parent="1">
          <mxGeometry x="350" y="350" width="20" height="20" as="geometry" />
        </mxCell>
        <mxCell id="Mmx8a3ROT5sJp90eQMAr-24" value="" style="shape=waypoint;sketch=0;fillStyle=solid;size=6;pointerEvents=1;points=[];fillColor=none;resizable=0;rotatable=0;perimeter=centerPerimeter;snapToPoint=1;strokeWidth=6;strokeColor=#FF0000;" vertex="1" parent="1">
          <mxGeometry x="390" y="350" width="20" height="20" as="geometry" />
        </mxCell>
        <mxCell id="Mmx8a3ROT5sJp90eQMAr-25" value="" style="shape=waypoint;sketch=0;fillStyle=solid;size=6;pointerEvents=1;points=[];fillColor=none;resizable=0;rotatable=0;perimeter=centerPerimeter;snapToPoint=1;strokeWidth=6;strokeColor=#0000FF;" vertex="1" parent="1">
          <mxGeometry x="430" y="350" width="20" height="20" as="geometry" />
        </mxCell>
        <mxCell id="Mmx8a3ROT5sJp90eQMAr-26" value="" style="shape=waypoint;sketch=0;fillStyle=solid;size=6;pointerEvents=1;points=[];fillColor=none;resizable=0;rotatable=0;perimeter=centerPerimeter;snapToPoint=1;strokeWidth=6;strokeColor=#FF00FF;" vertex="1" parent="1">
          <mxGeometry x="470" y="350" width="20" height="20" as="geometry" />
        </mxCell>
        <mxCell id="Mmx8a3ROT5sJp90eQMAr-27" value="" style="shape=waypoint;sketch=0;fillStyle=solid;size=6;pointerEvents=1;points=[];fillColor=none;resizable=0;rotatable=0;perimeter=centerPerimeter;snapToPoint=1;strokeWidth=6;strokeColor=#00CC00;" vertex="1" parent="1">
          <mxGeometry x="510" y="350" width="20" height="20" as="geometry" />
        </mxCell>
        <mxCell id="Mmx8a3ROT5sJp90eQMAr-28" value="" style="shape=waypoint;sketch=0;fillStyle=solid;size=6;pointerEvents=1;points=[];fillColor=none;resizable=0;rotatable=0;perimeter=centerPerimeter;snapToPoint=1;strokeWidth=6;strokeColor=#FF0000;" vertex="1" parent="1">
          <mxGeometry x="550" y="350" width="20" height="20" as="geometry" />
        </mxCell>
        <mxCell id="Mmx8a3ROT5sJp90eQMAr-29" value="" style="shape=waypoint;sketch=0;fillStyle=solid;size=6;pointerEvents=1;points=[];fillColor=none;resizable=0;rotatable=0;perimeter=centerPerimeter;snapToPoint=1;strokeWidth=6;strokeColor=#0000FF;" vertex="1" parent="1">
          <mxGeometry x="590" y="350" width="20" height="20" as="geometry" />
        </mxCell>
        <mxCell id="Mmx8a3ROT5sJp90eQMAr-30" value="" style="shape=waypoint;sketch=0;fillStyle=solid;size=6;pointerEvents=1;points=[];fillColor=none;resizable=0;rotatable=0;perimeter=centerPerimeter;snapToPoint=1;strokeWidth=6;strokeColor=#FF00FF;" vertex="1" parent="1">
          <mxGeometry x="630" y="350" width="20" height="20" as="geometry" />
        </mxCell>
        <mxCell id="Mmx8a3ROT5sJp90eQMAr-31" value="" style="shape=waypoint;sketch=0;fillStyle=solid;size=6;pointerEvents=1;points=[];fillColor=none;resizable=0;rotatable=0;perimeter=centerPerimeter;snapToPoint=1;strokeWidth=6;strokeColor=#00CC00;" vertex="1" parent="1">
          <mxGeometry x="670" y="350" width="20" height="20" as="geometry" />
        </mxCell>
        <mxCell id="Mmx8a3ROT5sJp90eQMAr-32" value="" style="shape=waypoint;sketch=0;fillStyle=solid;size=6;pointerEvents=1;points=[];fillColor=none;resizable=0;rotatable=0;perimeter=centerPerimeter;snapToPoint=1;strokeWidth=6;strokeColor=#FF0000;" vertex="1" parent="1">
          <mxGeometry x="710" y="350" width="20" height="20" as="geometry" />
        </mxCell>
        <mxCell id="Mmx8a3ROT5sJp90eQMAr-33" value="" style="shape=waypoint;sketch=0;fillStyle=solid;size=6;pointerEvents=1;points=[];fillColor=none;resizable=0;rotatable=0;perimeter=centerPerimeter;snapToPoint=1;strokeWidth=6;strokeColor=#0000FF;" vertex="1" parent="1">
          <mxGeometry x="750" y="350" width="20" height="20" as="geometry" />
        </mxCell>
        <mxCell id="Mmx8a3ROT5sJp90eQMAr-34" value="" style="shape=waypoint;sketch=0;fillStyle=solid;size=6;pointerEvents=1;points=[];fillColor=none;resizable=0;rotatable=0;perimeter=centerPerimeter;snapToPoint=1;strokeWidth=6;strokeColor=#FF00FF;" vertex="1" parent="1">
          <mxGeometry x="790" y="350" width="20" height="20" as="geometry" />
        </mxCell>
        <mxCell id="Mmx8a3ROT5sJp90eQMAr-35" value="" style="shape=waypoint;sketch=0;fillStyle=solid;size=6;pointerEvents=1;points=[];fillColor=none;resizable=0;rotatable=0;perimeter=centerPerimeter;snapToPoint=1;strokeWidth=6;strokeColor=#00CC00;" vertex="1" parent="1">
          <mxGeometry x="830" y="350" width="20" height="20" as="geometry" />
        </mxCell>
        <mxCell id="Mmx8a3ROT5sJp90eQMAr-36" value="" style="endArrow=none;html=1;rounded=0;" edge="1" parent="1">
          <mxGeometry width="50" height="50" relative="1" as="geometry">
            <mxPoint x="220" y="400" as="sourcePoint" />
            <mxPoint x="860" y="400" as="targetPoint" />
          </mxGeometry>
        </mxCell>
        <mxCell id="Mmx8a3ROT5sJp90eQMAr-38" value="" style="shape=waypoint;sketch=0;fillStyle=solid;size=6;pointerEvents=1;points=[];fillColor=none;resizable=0;rotatable=0;perimeter=centerPerimeter;snapToPoint=1;strokeWidth=6;strokeColor=#0000FF;" vertex="1" parent="1">
          <mxGeometry x="230" y="390" width="20" height="20" as="geometry" />
        </mxCell>
        <mxCell id="Mmx8a3ROT5sJp90eQMAr-39" value="" style="shape=waypoint;sketch=0;fillStyle=solid;size=6;pointerEvents=1;points=[];fillColor=none;resizable=0;rotatable=0;perimeter=centerPerimeter;snapToPoint=1;strokeWidth=6;strokeColor=#FF00FF;" vertex="1" parent="1">
          <mxGeometry x="270" y="390" width="20" height="20" as="geometry" />
        </mxCell>
        <mxCell id="Mmx8a3ROT5sJp90eQMAr-40" value="" style="shape=waypoint;sketch=0;fillStyle=solid;size=6;pointerEvents=1;points=[];fillColor=none;resizable=0;rotatable=0;perimeter=centerPerimeter;snapToPoint=1;strokeWidth=6;strokeColor=#00CC00;" vertex="1" parent="1">
          <mxGeometry x="310" y="390" width="20" height="20" as="geometry" />
        </mxCell>
        <mxCell id="Mmx8a3ROT5sJp90eQMAr-41" value="" style="shape=waypoint;sketch=0;fillStyle=solid;size=6;pointerEvents=1;points=[];fillColor=none;resizable=0;rotatable=0;perimeter=centerPerimeter;snapToPoint=1;strokeWidth=6;strokeColor=#FF0000;" vertex="1" parent="1">
          <mxGeometry x="350" y="390" width="20" height="20" as="geometry" />
        </mxCell>
        <mxCell id="Mmx8a3ROT5sJp90eQMAr-42" value="" style="shape=waypoint;sketch=0;fillStyle=solid;size=6;pointerEvents=1;points=[];fillColor=none;resizable=0;rotatable=0;perimeter=centerPerimeter;snapToPoint=1;strokeWidth=6;strokeColor=#0000FF;" vertex="1" parent="1">
          <mxGeometry x="390" y="390" width="20" height="20" as="geometry" />
        </mxCell>
        <mxCell id="Mmx8a3ROT5sJp90eQMAr-43" value="" style="shape=waypoint;sketch=0;fillStyle=solid;size=6;pointerEvents=1;points=[];fillColor=none;resizable=0;rotatable=0;perimeter=centerPerimeter;snapToPoint=1;strokeWidth=6;strokeColor=#FF00FF;" vertex="1" parent="1">
          <mxGeometry x="430" y="390" width="20" height="20" as="geometry" />
        </mxCell>
        <mxCell id="Mmx8a3ROT5sJp90eQMAr-44" value="" style="shape=waypoint;sketch=0;fillStyle=solid;size=6;pointerEvents=1;points=[];fillColor=none;resizable=0;rotatable=0;perimeter=centerPerimeter;snapToPoint=1;strokeWidth=6;strokeColor=#00CC00;" vertex="1" parent="1">
          <mxGeometry x="470" y="390" width="20" height="20" as="geometry" />
        </mxCell>
        <mxCell id="Mmx8a3ROT5sJp90eQMAr-45" value="" style="shape=waypoint;sketch=0;fillStyle=solid;size=6;pointerEvents=1;points=[];fillColor=none;resizable=0;rotatable=0;perimeter=centerPerimeter;snapToPoint=1;strokeWidth=6;strokeColor=#FF0000;" vertex="1" parent="1">
          <mxGeometry x="510" y="390" width="20" height="20" as="geometry" />
        </mxCell>
        <mxCell id="Mmx8a3ROT5sJp90eQMAr-46" value="" style="shape=waypoint;sketch=0;fillStyle=solid;size=6;pointerEvents=1;points=[];fillColor=none;resizable=0;rotatable=0;perimeter=centerPerimeter;snapToPoint=1;strokeWidth=6;strokeColor=#0000FF;" vertex="1" parent="1">
          <mxGeometry x="550" y="390" width="20" height="20" as="geometry" />
        </mxCell>
        <mxCell id="Mmx8a3ROT5sJp90eQMAr-47" value="" style="shape=waypoint;sketch=0;fillStyle=solid;size=6;pointerEvents=1;points=[];fillColor=none;resizable=0;rotatable=0;perimeter=centerPerimeter;snapToPoint=1;strokeWidth=6;strokeColor=#FF00FF;" vertex="1" parent="1">
          <mxGeometry x="590" y="390" width="20" height="20" as="geometry" />
        </mxCell>
        <mxCell id="Mmx8a3ROT5sJp90eQMAr-48" value="" style="shape=waypoint;sketch=0;fillStyle=solid;size=6;pointerEvents=1;points=[];fillColor=none;resizable=0;rotatable=0;perimeter=centerPerimeter;snapToPoint=1;strokeWidth=6;strokeColor=#00CC00;" vertex="1" parent="1">
          <mxGeometry x="630" y="390" width="20" height="20" as="geometry" />
        </mxCell>
        <mxCell id="Mmx8a3ROT5sJp90eQMAr-49" value="" style="shape=waypoint;sketch=0;fillStyle=solid;size=6;pointerEvents=1;points=[];fillColor=none;resizable=0;rotatable=0;perimeter=centerPerimeter;snapToPoint=1;strokeWidth=6;strokeColor=#FF0000;" vertex="1" parent="1">
          <mxGeometry x="670" y="390" width="20" height="20" as="geometry" />
        </mxCell>
        <mxCell id="Mmx8a3ROT5sJp90eQMAr-50" value="" style="shape=waypoint;sketch=0;fillStyle=solid;size=6;pointerEvents=1;points=[];fillColor=none;resizable=0;rotatable=0;perimeter=centerPerimeter;snapToPoint=1;strokeWidth=6;strokeColor=#0000FF;" vertex="1" parent="1">
          <mxGeometry x="710" y="390" width="20" height="20" as="geometry" />
        </mxCell>
        <mxCell id="Mmx8a3ROT5sJp90eQMAr-51" value="" style="shape=waypoint;sketch=0;fillStyle=solid;size=6;pointerEvents=1;points=[];fillColor=none;resizable=0;rotatable=0;perimeter=centerPerimeter;snapToPoint=1;strokeWidth=6;strokeColor=#FF00FF;" vertex="1" parent="1">
          <mxGeometry x="750" y="390" width="20" height="20" as="geometry" />
        </mxCell>
        <mxCell id="Mmx8a3ROT5sJp90eQMAr-52" value="" style="shape=waypoint;sketch=0;fillStyle=solid;size=6;pointerEvents=1;points=[];fillColor=none;resizable=0;rotatable=0;perimeter=centerPerimeter;snapToPoint=1;strokeWidth=6;strokeColor=#00CC00;" vertex="1" parent="1">
          <mxGeometry x="790" y="390" width="20" height="20" as="geometry" />
        </mxCell>
        <mxCell id="Mmx8a3ROT5sJp90eQMAr-53" value="" style="endArrow=none;html=1;rounded=0;" edge="1" parent="1">
          <mxGeometry width="50" height="50" relative="1" as="geometry">
            <mxPoint x="220" y="440" as="sourcePoint" />
            <mxPoint x="860" y="440" as="targetPoint" />
          </mxGeometry>
        </mxCell>
        <mxCell id="Mmx8a3ROT5sJp90eQMAr-56" value="" style="shape=waypoint;sketch=0;fillStyle=solid;size=6;pointerEvents=1;points=[];fillColor=none;resizable=0;rotatable=0;perimeter=centerPerimeter;snapToPoint=1;strokeWidth=6;strokeColor=#FF00FF;" vertex="1" parent="1">
          <mxGeometry x="230" y="430" width="20" height="20" as="geometry" />
        </mxCell>
        <mxCell id="Mmx8a3ROT5sJp90eQMAr-57" value="" style="shape=waypoint;sketch=0;fillStyle=solid;size=6;pointerEvents=1;points=[];fillColor=none;resizable=0;rotatable=0;perimeter=centerPerimeter;snapToPoint=1;strokeWidth=6;strokeColor=#00CC00;" vertex="1" parent="1">
          <mxGeometry x="270" y="430" width="20" height="20" as="geometry" />
        </mxCell>
        <mxCell id="Mmx8a3ROT5sJp90eQMAr-58" value="" style="shape=waypoint;sketch=0;fillStyle=solid;size=6;pointerEvents=1;points=[];fillColor=none;resizable=0;rotatable=0;perimeter=centerPerimeter;snapToPoint=1;strokeWidth=6;strokeColor=#FF0000;" vertex="1" parent="1">
          <mxGeometry x="310" y="430" width="20" height="20" as="geometry" />
        </mxCell>
        <mxCell id="Mmx8a3ROT5sJp90eQMAr-59" value="" style="shape=waypoint;sketch=0;fillStyle=solid;size=6;pointerEvents=1;points=[];fillColor=none;resizable=0;rotatable=0;perimeter=centerPerimeter;snapToPoint=1;strokeWidth=6;strokeColor=#0000FF;" vertex="1" parent="1">
          <mxGeometry x="350" y="430" width="20" height="20" as="geometry" />
        </mxCell>
        <mxCell id="Mmx8a3ROT5sJp90eQMAr-60" value="" style="shape=waypoint;sketch=0;fillStyle=solid;size=6;pointerEvents=1;points=[];fillColor=none;resizable=0;rotatable=0;perimeter=centerPerimeter;snapToPoint=1;strokeWidth=6;strokeColor=#FF00FF;" vertex="1" parent="1">
          <mxGeometry x="390" y="430" width="20" height="20" as="geometry" />
        </mxCell>
        <mxCell id="Mmx8a3ROT5sJp90eQMAr-61" value="" style="shape=waypoint;sketch=0;fillStyle=solid;size=6;pointerEvents=1;points=[];fillColor=none;resizable=0;rotatable=0;perimeter=centerPerimeter;snapToPoint=1;strokeWidth=6;strokeColor=#00CC00;" vertex="1" parent="1">
          <mxGeometry x="430" y="430" width="20" height="20" as="geometry" />
        </mxCell>
        <mxCell id="Mmx8a3ROT5sJp90eQMAr-62" value="" style="shape=waypoint;sketch=0;fillStyle=solid;size=6;pointerEvents=1;points=[];fillColor=none;resizable=0;rotatable=0;perimeter=centerPerimeter;snapToPoint=1;strokeWidth=6;strokeColor=#FF0000;" vertex="1" parent="1">
          <mxGeometry x="470" y="430" width="20" height="20" as="geometry" />
        </mxCell>
        <mxCell id="Mmx8a3ROT5sJp90eQMAr-63" value="" style="shape=waypoint;sketch=0;fillStyle=solid;size=6;pointerEvents=1;points=[];fillColor=none;resizable=0;rotatable=0;perimeter=centerPerimeter;snapToPoint=1;strokeWidth=6;strokeColor=#0000FF;" vertex="1" parent="1">
          <mxGeometry x="510" y="430" width="20" height="20" as="geometry" />
        </mxCell>
        <mxCell id="Mmx8a3ROT5sJp90eQMAr-64" value="" style="shape=waypoint;sketch=0;fillStyle=solid;size=6;pointerEvents=1;points=[];fillColor=none;resizable=0;rotatable=0;perimeter=centerPerimeter;snapToPoint=1;strokeWidth=6;strokeColor=#FF00FF;" vertex="1" parent="1">
          <mxGeometry x="550" y="430" width="20" height="20" as="geometry" />
        </mxCell>
        <mxCell id="Mmx8a3ROT5sJp90eQMAr-65" value="" style="shape=waypoint;sketch=0;fillStyle=solid;size=6;pointerEvents=1;points=[];fillColor=none;resizable=0;rotatable=0;perimeter=centerPerimeter;snapToPoint=1;strokeWidth=6;strokeColor=#00CC00;" vertex="1" parent="1">
          <mxGeometry x="590" y="430" width="20" height="20" as="geometry" />
        </mxCell>
        <mxCell id="Mmx8a3ROT5sJp90eQMAr-66" value="" style="shape=waypoint;sketch=0;fillStyle=solid;size=6;pointerEvents=1;points=[];fillColor=none;resizable=0;rotatable=0;perimeter=centerPerimeter;snapToPoint=1;strokeWidth=6;strokeColor=#FF0000;" vertex="1" parent="1">
          <mxGeometry x="630" y="430" width="20" height="20" as="geometry" />
        </mxCell>
        <mxCell id="Mmx8a3ROT5sJp90eQMAr-67" value="" style="shape=waypoint;sketch=0;fillStyle=solid;size=6;pointerEvents=1;points=[];fillColor=none;resizable=0;rotatable=0;perimeter=centerPerimeter;snapToPoint=1;strokeWidth=6;strokeColor=#0000FF;" vertex="1" parent="1">
          <mxGeometry x="670" y="430" width="20" height="20" as="geometry" />
        </mxCell>
        <mxCell id="Mmx8a3ROT5sJp90eQMAr-68" value="" style="shape=waypoint;sketch=0;fillStyle=solid;size=6;pointerEvents=1;points=[];fillColor=none;resizable=0;rotatable=0;perimeter=centerPerimeter;snapToPoint=1;strokeWidth=6;strokeColor=#FF00FF;" vertex="1" parent="1">
          <mxGeometry x="710" y="430" width="20" height="20" as="geometry" />
        </mxCell>
        <mxCell id="Mmx8a3ROT5sJp90eQMAr-69" value="" style="shape=waypoint;sketch=0;fillStyle=solid;size=6;pointerEvents=1;points=[];fillColor=none;resizable=0;rotatable=0;perimeter=centerPerimeter;snapToPoint=1;strokeWidth=6;strokeColor=#00CC00;" vertex="1" parent="1">
          <mxGeometry x="750" y="430" width="20" height="20" as="geometry" />
        </mxCell>
        <mxCell id="Mmx8a3ROT5sJp90eQMAr-87" value="" style="endArrow=none;html=1;rounded=0;" edge="1" parent="1">
          <mxGeometry width="50" height="50" relative="1" as="geometry">
            <mxPoint x="220" y="480" as="sourcePoint" />
            <mxPoint x="860" y="480" as="targetPoint" />
          </mxGeometry>
        </mxCell>
        <mxCell id="Mmx8a3ROT5sJp90eQMAr-88" value="" style="shape=waypoint;sketch=0;fillStyle=solid;size=6;pointerEvents=1;points=[];fillColor=none;resizable=0;rotatable=0;perimeter=centerPerimeter;snapToPoint=1;strokeWidth=6;strokeColor=#FF0000;" vertex="1" parent="1">
          <mxGeometry x="830" y="390" width="20" height="20" as="geometry" />
        </mxCell>
        <mxCell id="Mmx8a3ROT5sJp90eQMAr-91" value="" style="shape=waypoint;sketch=0;fillStyle=solid;size=6;pointerEvents=1;points=[];fillColor=none;resizable=0;rotatable=0;perimeter=centerPerimeter;snapToPoint=1;strokeWidth=6;strokeColor=#00CC00;" vertex="1" parent="1">
          <mxGeometry x="230" y="470" width="20" height="20" as="geometry" />
        </mxCell>
        <mxCell id="Mmx8a3ROT5sJp90eQMAr-92" value="" style="shape=waypoint;sketch=0;fillStyle=solid;size=6;pointerEvents=1;points=[];fillColor=none;resizable=0;rotatable=0;perimeter=centerPerimeter;snapToPoint=1;strokeWidth=6;strokeColor=#FF0000;" vertex="1" parent="1">
          <mxGeometry x="270" y="470" width="20" height="20" as="geometry" />
        </mxCell>
        <mxCell id="Mmx8a3ROT5sJp90eQMAr-93" value="" style="shape=waypoint;sketch=0;fillStyle=solid;size=6;pointerEvents=1;points=[];fillColor=none;resizable=0;rotatable=0;perimeter=centerPerimeter;snapToPoint=1;strokeWidth=6;strokeColor=#0000FF;" vertex="1" parent="1">
          <mxGeometry x="310" y="470" width="20" height="20" as="geometry" />
        </mxCell>
        <mxCell id="Mmx8a3ROT5sJp90eQMAr-94" value="" style="shape=waypoint;sketch=0;fillStyle=solid;size=6;pointerEvents=1;points=[];fillColor=none;resizable=0;rotatable=0;perimeter=centerPerimeter;snapToPoint=1;strokeWidth=6;strokeColor=#FF00FF;" vertex="1" parent="1">
          <mxGeometry x="350" y="470" width="20" height="20" as="geometry" />
        </mxCell>
        <mxCell id="Mmx8a3ROT5sJp90eQMAr-95" value="" style="shape=waypoint;sketch=0;fillStyle=solid;size=6;pointerEvents=1;points=[];fillColor=none;resizable=0;rotatable=0;perimeter=centerPerimeter;snapToPoint=1;strokeWidth=6;strokeColor=#00CC00;" vertex="1" parent="1">
          <mxGeometry x="390" y="470" width="20" height="20" as="geometry" />
        </mxCell>
        <mxCell id="Mmx8a3ROT5sJp90eQMAr-96" value="" style="shape=waypoint;sketch=0;fillStyle=solid;size=6;pointerEvents=1;points=[];fillColor=none;resizable=0;rotatable=0;perimeter=centerPerimeter;snapToPoint=1;strokeWidth=6;strokeColor=#FF0000;" vertex="1" parent="1">
          <mxGeometry x="430" y="470" width="20" height="20" as="geometry" />
        </mxCell>
        <mxCell id="Mmx8a3ROT5sJp90eQMAr-97" value="" style="shape=waypoint;sketch=0;fillStyle=solid;size=6;pointerEvents=1;points=[];fillColor=none;resizable=0;rotatable=0;perimeter=centerPerimeter;snapToPoint=1;strokeWidth=6;strokeColor=#0000FF;" vertex="1" parent="1">
          <mxGeometry x="470" y="470" width="20" height="20" as="geometry" />
        </mxCell>
        <mxCell id="Mmx8a3ROT5sJp90eQMAr-98" value="" style="shape=waypoint;sketch=0;fillStyle=solid;size=6;pointerEvents=1;points=[];fillColor=none;resizable=0;rotatable=0;perimeter=centerPerimeter;snapToPoint=1;strokeWidth=6;strokeColor=#FF00FF;" vertex="1" parent="1">
          <mxGeometry x="510" y="470" width="20" height="20" as="geometry" />
        </mxCell>
        <mxCell id="Mmx8a3ROT5sJp90eQMAr-99" value="" style="shape=waypoint;sketch=0;fillStyle=solid;size=6;pointerEvents=1;points=[];fillColor=none;resizable=0;rotatable=0;perimeter=centerPerimeter;snapToPoint=1;strokeWidth=6;strokeColor=#00CC00;" vertex="1" parent="1">
          <mxGeometry x="550" y="470" width="20" height="20" as="geometry" />
        </mxCell>
        <mxCell id="Mmx8a3ROT5sJp90eQMAr-100" value="" style="shape=waypoint;sketch=0;fillStyle=solid;size=6;pointerEvents=1;points=[];fillColor=none;resizable=0;rotatable=0;perimeter=centerPerimeter;snapToPoint=1;strokeWidth=6;strokeColor=#FF0000;" vertex="1" parent="1">
          <mxGeometry x="590" y="470" width="20" height="20" as="geometry" />
        </mxCell>
        <mxCell id="Mmx8a3ROT5sJp90eQMAr-101" value="" style="shape=waypoint;sketch=0;fillStyle=solid;size=6;pointerEvents=1;points=[];fillColor=none;resizable=0;rotatable=0;perimeter=centerPerimeter;snapToPoint=1;strokeWidth=6;strokeColor=#0000FF;" vertex="1" parent="1">
          <mxGeometry x="630" y="470" width="20" height="20" as="geometry" />
        </mxCell>
        <mxCell id="Mmx8a3ROT5sJp90eQMAr-102" value="" style="shape=waypoint;sketch=0;fillStyle=solid;size=6;pointerEvents=1;points=[];fillColor=none;resizable=0;rotatable=0;perimeter=centerPerimeter;snapToPoint=1;strokeWidth=6;strokeColor=#FF00FF;" vertex="1" parent="1">
          <mxGeometry x="670" y="470" width="20" height="20" as="geometry" />
        </mxCell>
        <mxCell id="Mmx8a3ROT5sJp90eQMAr-103" value="" style="shape=waypoint;sketch=0;fillStyle=solid;size=6;pointerEvents=1;points=[];fillColor=none;resizable=0;rotatable=0;perimeter=centerPerimeter;snapToPoint=1;strokeWidth=6;strokeColor=#00CC00;" vertex="1" parent="1">
          <mxGeometry x="710" y="470" width="20" height="20" as="geometry" />
        </mxCell>
        <mxCell id="Mmx8a3ROT5sJp90eQMAr-104" value="" style="shape=waypoint;sketch=0;fillStyle=solid;size=6;pointerEvents=1;points=[];fillColor=none;resizable=0;rotatable=0;perimeter=centerPerimeter;snapToPoint=1;strokeWidth=6;strokeColor=#FF0000;" vertex="1" parent="1">
          <mxGeometry x="790" y="430" width="20" height="20" as="geometry" />
        </mxCell>
        <mxCell id="Mmx8a3ROT5sJp90eQMAr-105" value="" style="shape=waypoint;sketch=0;fillStyle=solid;size=6;pointerEvents=1;points=[];fillColor=none;resizable=0;rotatable=0;perimeter=centerPerimeter;snapToPoint=1;strokeWidth=6;strokeColor=#0000FF;" vertex="1" parent="1">
          <mxGeometry x="830" y="430" width="20" height="20" as="geometry" />
        </mxCell>
        <mxCell id="Mmx8a3ROT5sJp90eQMAr-107" value="" style="shape=waypoint;sketch=0;fillStyle=solid;size=6;pointerEvents=1;points=[];fillColor=none;resizable=0;rotatable=0;perimeter=centerPerimeter;snapToPoint=1;strokeWidth=6;strokeColor=#FF0000;" vertex="1" parent="1">
          <mxGeometry x="750" y="470" width="20" height="20" as="geometry" />
        </mxCell>
        <mxCell id="Mmx8a3ROT5sJp90eQMAr-108" value="" style="shape=waypoint;sketch=0;fillStyle=solid;size=6;pointerEvents=1;points=[];fillColor=none;resizable=0;rotatable=0;perimeter=centerPerimeter;snapToPoint=1;strokeWidth=6;strokeColor=#0000FF;" vertex="1" parent="1">
          <mxGeometry x="790" y="470" width="20" height="20" as="geometry" />
        </mxCell>
        <mxCell id="Mmx8a3ROT5sJp90eQMAr-109" value="" style="shape=waypoint;sketch=0;fillStyle=solid;size=6;pointerEvents=1;points=[];fillColor=none;resizable=0;rotatable=0;perimeter=centerPerimeter;snapToPoint=1;strokeWidth=6;strokeColor=#FF00FF;" vertex="1" parent="1">
          <mxGeometry x="830" y="470" width="20" height="20" as="geometry" />
        </mxCell>
        <mxCell id="Mmx8a3ROT5sJp90eQMAr-110" value="&lt;font style=&quot;font-size: 20px;&quot;&gt;$$x_i(t)$$&lt;/font&gt;" style="text;html=1;align=center;verticalAlign=middle;whiteSpace=wrap;rounded=0;" vertex="1" parent="1">
          <mxGeometry x="140" y="310" width="60" height="30" as="geometry" />
        </mxCell>
        <mxCell id="Mmx8a3ROT5sJp90eQMAr-111" value="&lt;font style=&quot;font-size: 15px; color: rgb(255, 0, 0);&quot;&gt;$$x_0(t)$$&lt;/font&gt;" style="text;html=1;align=center;verticalAlign=middle;whiteSpace=wrap;rounded=0;" vertex="1" parent="1">
          <mxGeometry x="170" y="340" width="60" height="30" as="geometry" />
        </mxCell>
        <mxCell id="Mmx8a3ROT5sJp90eQMAr-112" value="&lt;font style=&quot;font-size: 15px; color: rgb(0, 0, 255);&quot;&gt;$$x_1(t)$$&lt;/font&gt;" style="text;html=1;align=center;verticalAlign=middle;whiteSpace=wrap;rounded=0;" vertex="1" parent="1">
          <mxGeometry x="170" y="380" width="60" height="30" as="geometry" />
        </mxCell>
        <mxCell id="Mmx8a3ROT5sJp90eQMAr-113" value="&lt;font style=&quot;font-size: 15px; color: rgb(255, 0, 255);&quot;&gt;$$x_2(t)$$&lt;/font&gt;" style="text;html=1;align=center;verticalAlign=middle;whiteSpace=wrap;rounded=0;" vertex="1" parent="1">
          <mxGeometry x="170" y="420" width="60" height="30" as="geometry" />
        </mxCell>
        <mxCell id="Mmx8a3ROT5sJp90eQMAr-114" value="&lt;font style=&quot;font-size: 15px; color: rgb(0, 204, 0);&quot;&gt;$$x_3(t)$$&lt;/font&gt;" style="text;html=1;align=center;verticalAlign=middle;whiteSpace=wrap;rounded=0;" vertex="1" parent="1">
          <mxGeometry x="170" y="460" width="60" height="30" as="geometry" />
        </mxCell>
        <mxCell id="Mmx8a3ROT5sJp90eQMAr-116" value="" style="endArrow=none;html=1;rounded=0;" edge="1" parent="1">
          <mxGeometry width="50" height="50" relative="1" as="geometry">
            <mxPoint x="220" y="600" as="sourcePoint" />
            <mxPoint x="860" y="600" as="targetPoint" />
          </mxGeometry>
        </mxCell>
        <mxCell id="Mmx8a3ROT5sJp90eQMAr-117" value="" style="shape=waypoint;sketch=0;fillStyle=solid;size=6;pointerEvents=1;points=[];fillColor=none;resizable=0;rotatable=0;perimeter=centerPerimeter;snapToPoint=1;strokeWidth=6;strokeColor=#FF0000;" vertex="1" parent="1">
          <mxGeometry x="230" y="590" width="20" height="20" as="geometry" />
        </mxCell>
        <mxCell id="Mmx8a3ROT5sJp90eQMAr-121" value="" style="shape=waypoint;sketch=0;fillStyle=solid;size=6;pointerEvents=1;points=[];fillColor=none;resizable=0;rotatable=0;perimeter=centerPerimeter;snapToPoint=1;strokeWidth=6;strokeColor=#FF0000;" vertex="1" parent="1">
          <mxGeometry x="390" y="590" width="20" height="20" as="geometry" />
        </mxCell>
        <mxCell id="Mmx8a3ROT5sJp90eQMAr-125" value="" style="shape=waypoint;sketch=0;fillStyle=solid;size=6;pointerEvents=1;points=[];fillColor=none;resizable=0;rotatable=0;perimeter=centerPerimeter;snapToPoint=1;strokeWidth=6;strokeColor=#FF0000;" vertex="1" parent="1">
          <mxGeometry x="550" y="590" width="20" height="20" as="geometry" />
        </mxCell>
        <mxCell id="Mmx8a3ROT5sJp90eQMAr-129" value="" style="shape=waypoint;sketch=0;fillStyle=solid;size=6;pointerEvents=1;points=[];fillColor=none;resizable=0;rotatable=0;perimeter=centerPerimeter;snapToPoint=1;strokeWidth=6;strokeColor=#FF0000;" vertex="1" parent="1">
          <mxGeometry x="710" y="590" width="20" height="20" as="geometry" />
        </mxCell>
        <mxCell id="Mmx8a3ROT5sJp90eQMAr-133" value="" style="endArrow=none;html=1;rounded=0;" edge="1" parent="1">
          <mxGeometry width="50" height="50" relative="1" as="geometry">
            <mxPoint x="220" y="640" as="sourcePoint" />
            <mxPoint x="860" y="640" as="targetPoint" />
          </mxGeometry>
        </mxCell>
        <mxCell id="Mmx8a3ROT5sJp90eQMAr-134" value="" style="shape=waypoint;sketch=0;fillStyle=solid;size=6;pointerEvents=1;points=[];fillColor=none;resizable=0;rotatable=0;perimeter=centerPerimeter;snapToPoint=1;strokeWidth=6;strokeColor=#0000FF;" vertex="1" parent="1">
          <mxGeometry x="230" y="630" width="20" height="20" as="geometry" />
        </mxCell>
        <mxCell id="Mmx8a3ROT5sJp90eQMAr-138" value="" style="shape=waypoint;sketch=0;fillStyle=solid;size=6;pointerEvents=1;points=[];fillColor=none;resizable=0;rotatable=0;perimeter=centerPerimeter;snapToPoint=1;strokeWidth=6;strokeColor=#0000FF;" vertex="1" parent="1">
          <mxGeometry x="390" y="630" width="20" height="20" as="geometry" />
        </mxCell>
        <mxCell id="Mmx8a3ROT5sJp90eQMAr-142" value="" style="shape=waypoint;sketch=0;fillStyle=solid;size=6;pointerEvents=1;points=[];fillColor=none;resizable=0;rotatable=0;perimeter=centerPerimeter;snapToPoint=1;strokeWidth=6;strokeColor=#0000FF;" vertex="1" parent="1">
          <mxGeometry x="550" y="630" width="20" height="20" as="geometry" />
        </mxCell>
        <mxCell id="Mmx8a3ROT5sJp90eQMAr-146" value="" style="shape=waypoint;sketch=0;fillStyle=solid;size=6;pointerEvents=1;points=[];fillColor=none;resizable=0;rotatable=0;perimeter=centerPerimeter;snapToPoint=1;strokeWidth=6;strokeColor=#0000FF;" vertex="1" parent="1">
          <mxGeometry x="710" y="630" width="20" height="20" as="geometry" />
        </mxCell>
        <mxCell id="Mmx8a3ROT5sJp90eQMAr-149" value="" style="endArrow=none;html=1;rounded=0;" edge="1" parent="1">
          <mxGeometry width="50" height="50" relative="1" as="geometry">
            <mxPoint x="220" y="680" as="sourcePoint" />
            <mxPoint x="860" y="680" as="targetPoint" />
          </mxGeometry>
        </mxCell>
        <mxCell id="Mmx8a3ROT5sJp90eQMAr-150" value="" style="shape=waypoint;sketch=0;fillStyle=solid;size=6;pointerEvents=1;points=[];fillColor=none;resizable=0;rotatable=0;perimeter=centerPerimeter;snapToPoint=1;strokeWidth=6;strokeColor=#FF00FF;" vertex="1" parent="1">
          <mxGeometry x="230" y="670" width="20" height="20" as="geometry" />
        </mxCell>
        <mxCell id="Mmx8a3ROT5sJp90eQMAr-154" value="" style="shape=waypoint;sketch=0;fillStyle=solid;size=6;pointerEvents=1;points=[];fillColor=none;resizable=0;rotatable=0;perimeter=centerPerimeter;snapToPoint=1;strokeWidth=6;strokeColor=#FF00FF;" vertex="1" parent="1">
          <mxGeometry x="390" y="670" width="20" height="20" as="geometry" />
        </mxCell>
        <mxCell id="Mmx8a3ROT5sJp90eQMAr-158" value="" style="shape=waypoint;sketch=0;fillStyle=solid;size=6;pointerEvents=1;points=[];fillColor=none;resizable=0;rotatable=0;perimeter=centerPerimeter;snapToPoint=1;strokeWidth=6;strokeColor=#FF00FF;" vertex="1" parent="1">
          <mxGeometry x="550" y="670" width="20" height="20" as="geometry" />
        </mxCell>
        <mxCell id="Mmx8a3ROT5sJp90eQMAr-162" value="" style="shape=waypoint;sketch=0;fillStyle=solid;size=6;pointerEvents=1;points=[];fillColor=none;resizable=0;rotatable=0;perimeter=centerPerimeter;snapToPoint=1;strokeWidth=6;strokeColor=#FF00FF;" vertex="1" parent="1">
          <mxGeometry x="710" y="670" width="20" height="20" as="geometry" />
        </mxCell>
        <mxCell id="Mmx8a3ROT5sJp90eQMAr-164" value="" style="endArrow=none;html=1;rounded=0;" edge="1" parent="1">
          <mxGeometry width="50" height="50" relative="1" as="geometry">
            <mxPoint x="220" y="720" as="sourcePoint" />
            <mxPoint x="860" y="720" as="targetPoint" />
          </mxGeometry>
        </mxCell>
        <mxCell id="Mmx8a3ROT5sJp90eQMAr-166" value="" style="shape=waypoint;sketch=0;fillStyle=solid;size=6;pointerEvents=1;points=[];fillColor=none;resizable=0;rotatable=0;perimeter=centerPerimeter;snapToPoint=1;strokeWidth=6;strokeColor=#00CC00;" vertex="1" parent="1">
          <mxGeometry x="230" y="710" width="20" height="20" as="geometry" />
        </mxCell>
        <mxCell id="Mmx8a3ROT5sJp90eQMAr-170" value="" style="shape=waypoint;sketch=0;fillStyle=solid;size=6;pointerEvents=1;points=[];fillColor=none;resizable=0;rotatable=0;perimeter=centerPerimeter;snapToPoint=1;strokeWidth=6;strokeColor=#00CC00;" vertex="1" parent="1">
          <mxGeometry x="390" y="710" width="20" height="20" as="geometry" />
        </mxCell>
        <mxCell id="Mmx8a3ROT5sJp90eQMAr-174" value="" style="shape=waypoint;sketch=0;fillStyle=solid;size=6;pointerEvents=1;points=[];fillColor=none;resizable=0;rotatable=0;perimeter=centerPerimeter;snapToPoint=1;strokeWidth=6;strokeColor=#00CC00;" vertex="1" parent="1">
          <mxGeometry x="550" y="710" width="20" height="20" as="geometry" />
        </mxCell>
        <mxCell id="Mmx8a3ROT5sJp90eQMAr-178" value="" style="shape=waypoint;sketch=0;fillStyle=solid;size=6;pointerEvents=1;points=[];fillColor=none;resizable=0;rotatable=0;perimeter=centerPerimeter;snapToPoint=1;strokeWidth=6;strokeColor=#00CC00;" vertex="1" parent="1">
          <mxGeometry x="710" y="710" width="20" height="20" as="geometry" />
        </mxCell>
        <mxCell id="Mmx8a3ROT5sJp90eQMAr-184" value="&lt;font style=&quot;font-size: 20px;&quot;&gt;$$x_{si}(t)$$&lt;/font&gt;" style="text;html=1;align=center;verticalAlign=middle;whiteSpace=wrap;rounded=0;" vertex="1" parent="1">
          <mxGeometry x="140" y="550" width="60" height="30" as="geometry" />
        </mxCell>
        <mxCell id="Mmx8a3ROT5sJp90eQMAr-185" value="&lt;font style=&quot;font-size: 15px; color: rgb(255, 0, 0);&quot;&gt;$$x_{s0}(t)$$&lt;/font&gt;" style="text;html=1;align=center;verticalAlign=middle;whiteSpace=wrap;rounded=0;" vertex="1" parent="1">
          <mxGeometry x="170" y="580" width="60" height="30" as="geometry" />
        </mxCell>
        <mxCell id="Mmx8a3ROT5sJp90eQMAr-186" value="&lt;font style=&quot;font-size: 15px; color: rgb(0, 0, 255);&quot;&gt;$$x_{s1}(t)$$&lt;/font&gt;" style="text;html=1;align=center;verticalAlign=middle;whiteSpace=wrap;rounded=0;" vertex="1" parent="1">
          <mxGeometry x="170" y="620" width="60" height="30" as="geometry" />
        </mxCell>
        <mxCell id="Mmx8a3ROT5sJp90eQMAr-187" value="&lt;font style=&quot;font-size: 15px; color: rgb(255, 0, 255);&quot;&gt;$$x_{s2}(t)$$&lt;/font&gt;" style="text;html=1;align=center;verticalAlign=middle;whiteSpace=wrap;rounded=0;" vertex="1" parent="1">
          <mxGeometry x="170" y="660" width="60" height="30" as="geometry" />
        </mxCell>
        <mxCell id="Mmx8a3ROT5sJp90eQMAr-188" value="&lt;font style=&quot;font-size: 15px; color: rgb(0, 204, 0);&quot;&gt;$$x_{s3}(t)$$&lt;/font&gt;" style="text;html=1;align=center;verticalAlign=middle;whiteSpace=wrap;rounded=0;" vertex="1" parent="1">
          <mxGeometry x="170" y="700" width="60" height="30" as="geometry" />
        </mxCell>
        <mxCell id="Mmx8a3ROT5sJp90eQMAr-190" value="" style="endArrow=none;html=1;rounded=0;" edge="1" parent="1">
          <mxGeometry width="50" height="50" relative="1" as="geometry">
            <mxPoint x="220" y="840" as="sourcePoint" />
            <mxPoint x="860" y="840" as="targetPoint" />
          </mxGeometry>
        </mxCell>
        <mxCell id="Mmx8a3ROT5sJp90eQMAr-191" value="" style="shape=waypoint;sketch=0;fillStyle=solid;size=6;pointerEvents=1;points=[];fillColor=none;resizable=0;rotatable=0;perimeter=centerPerimeter;snapToPoint=1;strokeWidth=6;strokeColor=#FF0000;" vertex="1" parent="1">
          <mxGeometry x="230" y="830" width="20" height="20" as="geometry" />
        </mxCell>
        <mxCell id="Mmx8a3ROT5sJp90eQMAr-192" value="" style="shape=waypoint;sketch=0;fillStyle=solid;size=6;pointerEvents=1;points=[];fillColor=none;resizable=0;rotatable=0;perimeter=centerPerimeter;snapToPoint=1;strokeWidth=6;strokeColor=#0000FF;" vertex="1" parent="1">
          <mxGeometry x="270" y="830" width="20" height="20" as="geometry" />
        </mxCell>
        <mxCell id="Mmx8a3ROT5sJp90eQMAr-193" value="" style="shape=waypoint;sketch=0;fillStyle=solid;size=6;pointerEvents=1;points=[];fillColor=none;resizable=0;rotatable=0;perimeter=centerPerimeter;snapToPoint=1;strokeWidth=6;strokeColor=#FF00FF;" vertex="1" parent="1">
          <mxGeometry x="310" y="830" width="20" height="20" as="geometry" />
        </mxCell>
        <mxCell id="Mmx8a3ROT5sJp90eQMAr-194" value="" style="shape=waypoint;sketch=0;fillStyle=solid;size=6;pointerEvents=1;points=[];fillColor=none;resizable=0;rotatable=0;perimeter=centerPerimeter;snapToPoint=1;strokeWidth=6;strokeColor=#00CC00;" vertex="1" parent="1">
          <mxGeometry x="350" y="830" width="20" height="20" as="geometry" />
        </mxCell>
        <mxCell id="Mmx8a3ROT5sJp90eQMAr-195" value="" style="shape=waypoint;sketch=0;fillStyle=solid;size=6;pointerEvents=1;points=[];fillColor=none;resizable=0;rotatable=0;perimeter=centerPerimeter;snapToPoint=1;strokeWidth=6;strokeColor=#FF0000;" vertex="1" parent="1">
          <mxGeometry x="390" y="830" width="20" height="20" as="geometry" />
        </mxCell>
        <mxCell id="Mmx8a3ROT5sJp90eQMAr-196" value="" style="shape=waypoint;sketch=0;fillStyle=solid;size=6;pointerEvents=1;points=[];fillColor=none;resizable=0;rotatable=0;perimeter=centerPerimeter;snapToPoint=1;strokeWidth=6;strokeColor=#0000FF;" vertex="1" parent="1">
          <mxGeometry x="430" y="830" width="20" height="20" as="geometry" />
        </mxCell>
        <mxCell id="Mmx8a3ROT5sJp90eQMAr-197" value="" style="shape=waypoint;sketch=0;fillStyle=solid;size=6;pointerEvents=1;points=[];fillColor=none;resizable=0;rotatable=0;perimeter=centerPerimeter;snapToPoint=1;strokeWidth=6;strokeColor=#FF00FF;" vertex="1" parent="1">
          <mxGeometry x="470" y="830" width="20" height="20" as="geometry" />
        </mxCell>
        <mxCell id="Mmx8a3ROT5sJp90eQMAr-198" value="" style="shape=waypoint;sketch=0;fillStyle=solid;size=6;pointerEvents=1;points=[];fillColor=none;resizable=0;rotatable=0;perimeter=centerPerimeter;snapToPoint=1;strokeWidth=6;strokeColor=#00CC00;" vertex="1" parent="1">
          <mxGeometry x="510" y="830" width="20" height="20" as="geometry" />
        </mxCell>
        <mxCell id="Mmx8a3ROT5sJp90eQMAr-199" value="" style="shape=waypoint;sketch=0;fillStyle=solid;size=6;pointerEvents=1;points=[];fillColor=none;resizable=0;rotatable=0;perimeter=centerPerimeter;snapToPoint=1;strokeWidth=6;strokeColor=#FF0000;" vertex="1" parent="1">
          <mxGeometry x="550" y="830" width="20" height="20" as="geometry" />
        </mxCell>
        <mxCell id="Mmx8a3ROT5sJp90eQMAr-200" value="" style="shape=waypoint;sketch=0;fillStyle=solid;size=6;pointerEvents=1;points=[];fillColor=none;resizable=0;rotatable=0;perimeter=centerPerimeter;snapToPoint=1;strokeWidth=6;strokeColor=#0000FF;" vertex="1" parent="1">
          <mxGeometry x="590" y="830" width="20" height="20" as="geometry" />
        </mxCell>
        <mxCell id="Mmx8a3ROT5sJp90eQMAr-201" value="" style="shape=waypoint;sketch=0;fillStyle=solid;size=6;pointerEvents=1;points=[];fillColor=none;resizable=0;rotatable=0;perimeter=centerPerimeter;snapToPoint=1;strokeWidth=6;strokeColor=#FF00FF;" vertex="1" parent="1">
          <mxGeometry x="630" y="830" width="20" height="20" as="geometry" />
        </mxCell>
        <mxCell id="Mmx8a3ROT5sJp90eQMAr-202" value="" style="shape=waypoint;sketch=0;fillStyle=solid;size=6;pointerEvents=1;points=[];fillColor=none;resizable=0;rotatable=0;perimeter=centerPerimeter;snapToPoint=1;strokeWidth=6;strokeColor=#00CC00;" vertex="1" parent="1">
          <mxGeometry x="670" y="830" width="20" height="20" as="geometry" />
        </mxCell>
        <mxCell id="Mmx8a3ROT5sJp90eQMAr-203" value="" style="shape=waypoint;sketch=0;fillStyle=solid;size=6;pointerEvents=1;points=[];fillColor=none;resizable=0;rotatable=0;perimeter=centerPerimeter;snapToPoint=1;strokeWidth=6;strokeColor=#FF0000;" vertex="1" parent="1">
          <mxGeometry x="710" y="830" width="20" height="20" as="geometry" />
        </mxCell>
        <mxCell id="Mmx8a3ROT5sJp90eQMAr-204" value="" style="shape=waypoint;sketch=0;fillStyle=solid;size=6;pointerEvents=1;points=[];fillColor=none;resizable=0;rotatable=0;perimeter=centerPerimeter;snapToPoint=1;strokeWidth=6;strokeColor=#0000FF;" vertex="1" parent="1">
          <mxGeometry x="750" y="830" width="20" height="20" as="geometry" />
        </mxCell>
        <mxCell id="Mmx8a3ROT5sJp90eQMAr-205" value="" style="shape=waypoint;sketch=0;fillStyle=solid;size=6;pointerEvents=1;points=[];fillColor=none;resizable=0;rotatable=0;perimeter=centerPerimeter;snapToPoint=1;strokeWidth=6;strokeColor=#FF00FF;" vertex="1" parent="1">
          <mxGeometry x="790" y="830" width="20" height="20" as="geometry" />
        </mxCell>
        <mxCell id="Mmx8a3ROT5sJp90eQMAr-206" value="" style="shape=waypoint;sketch=0;fillStyle=solid;size=6;pointerEvents=1;points=[];fillColor=none;resizable=0;rotatable=0;perimeter=centerPerimeter;snapToPoint=1;strokeWidth=6;strokeColor=#00CC00;" vertex="1" parent="1">
          <mxGeometry x="830" y="830" width="20" height="20" as="geometry" />
        </mxCell>
        <mxCell id="Mmx8a3ROT5sJp90eQMAr-207" value="&lt;font style=&quot;font-size: 20px;&quot;&gt;$$x_s(t)$$&lt;/font&gt;" style="text;html=1;align=center;verticalAlign=middle;whiteSpace=wrap;rounded=0;" vertex="1" parent="1">
          <mxGeometry x="140" y="800" width="60" height="30" as="geometry" />
        </mxCell>
        <mxCell id="Mmx8a3ROT5sJp90eQMAr-209" value="&lt;font style=&quot;font-size: 20px; color: rgb(234, 107, 102);&quot;&gt;&lt;b&gt;&lt;i&gt;left shift&lt;/i&gt;&lt;/b&gt;&lt;/font&gt;" style="text;html=1;align=center;verticalAlign=middle;whiteSpace=wrap;rounded=0;" vertex="1" parent="1">
          <mxGeometry x="220" y="290" width="100" height="30" as="geometry" />
        </mxCell>
        <mxCell id="Mmx8a3ROT5sJp90eQMAr-210" value="&lt;font style=&quot;font-size: 20px; color: rgb(234, 107, 102);&quot;&gt;&lt;b&gt;&lt;i&gt;right shift&lt;/i&gt;&lt;/b&gt;&lt;/font&gt;" style="text;html=1;align=center;verticalAlign=middle;whiteSpace=wrap;rounded=0;" vertex="1" parent="1">
          <mxGeometry x="220" y="780" width="100" height="30" as="geometry" />
        </mxCell>
      </root>
    </mxGraphModel>
  </diagram>
</mxfile>
